{"title":"Stomp the Yard 2007 BRRip XviD MP3-RARBG","uid":12590116,"size":1548226799,"categoryP":"video","categoryS":"movies","magnet":"?xt=urn:btih:65a8d0bbc1546737f09f463a5dab57179dbbe1d8&amp;dn=Stomp+the+Yard+2007+BRRip+XviD+MP3-RARBG&amp;tr=udp%3A%2F%2Ftracker.leechers-paradise.org%3A6969&amp;tr=udp%3A%2F%2Fzer0day.ch%3A1337&amp;tr=udp%3A%2F%2Fopen.demonii.com%3A1337&amp;tr=udp%3A%2F%2Ftracker.coppersurfer.tk%3A6969&amp;tr=udp%3A%2F%2Fexodus.desync.com%3A6969","seeders":0,"leechers":1,"uploader":"TheRival","files":5,"time":1445088897,"description":"Screens: \nhttp://extraimago.com/image/9AU \nhttp://extraimago.com/image/9Az \nhttp://extraimago.com/image/9A0 \nhttp://extraimago.com/image/9AJ \nhttp://extraimago.com/image/9AK\r\n\r\nVideo\r\nID                                       : 0\r\nFormat                                   : MPEG-4 Visual\r\nFormat profile                           :   \r\nFormat settings, BVOP                    : No\r\nFormat settings, QPel                    : No\r\nFormat settings, GMC                     : No warppoints\r\nFormat settings, Matrix                  : Default (H.263)\r\nCodec ID                                 : XVID\r\nCodec ID/Hint                            : XviD\r\nDuration                                 : 1h 54mn\r\nBit rate                                 : 1 598 Kbps\r\nWidth                                    : 720 pixels\r\nHeight                                   : 300 pixels\r\nDisplay aspect ratio                     : 2.40:1\r\nFrame rate                               : 23.976 fps\r\nColor space                              : YUV\r\nChroma subsampling                       : 4:2:0\r\nBit depth                                : 8 bits\r\nScan type                                : Progressive\r\nCompression mode                         : Lossy\r\nBits/(Pixel*Frame)                       : 0.308\r\nStream size                              : 1.28 GiB (89%)\r\nTitle                                    : RARBG.COM - Stomp.the.Yard.2007.BRRip.XviD.MP3-RARBG\r\nWriting library                          : Lavc56.60.100\r\n\r\nAudio\r\nID                                       : 1\r\nFormat                                   : MPEG Audio\r\nFormat version                           : Version 1\r\nFormat profile                           : Layer 3\r\nMode                                     : Joint stereo\r\nMode extension                           : MS Stereo\r\nCodec ID                                 : 55\r\nCodec ID/Hint                            : MP3\r\nDuration                                 : 1h 54mn\r\nBit rate mode                            : Constant\r\nBit rate                                 : 192 Kbps\r\nChannel(s)                               : 2 channels\r\nSampling rate                            : 48.0 KHz\r\nCompression mode                         : Lossy\r\nStream size                              : 157 MiB (11%)\r\nAlignment                                : Aligned on interleaves\r\nInterleave, duration                     : 24 ms (0.57 video frame)\r\nInterleave, preload duration             : 24 ms","torrent":{"xt":"urn:btih:65a8d0bbc1546737f09f463a5dab57179dbbe1d8","amp;dn":"Stomp+the+Yard+2007+BRRip+XviD+MP3-RARBG","amp;tr":["udp%3A%2F%2Ftracker.leechers-paradise.org%3A6969","udp%3A%2F%2Fzer0day.ch%3A1337","udp%3A%2F%2Fopen.demonii.com%3A1337","udp%3A%2F%2Ftracker.coppersurfer.tk%3A6969","udp%3A%2F%2Fexodus.desync.com%3A6969"],"infoHash":"65a8d0bbc1546737f09f463a5dab57179dbbe1d8","infoHashBuffer":{"type":"Buffer","data":[101,168,208,187,193,84,103,55,240,159,70,58,93,171,87,23,157,187,225,216]},"announce":[],"urlList":[]}}